<mxfile host="app.diagrams.net" agent="Mozilla/5.0 (Windows NT 10.0; Win64; x64) AppleWebKit/537.36 (KHTML, like Gecko) Chrome/136.0.0.0 Safari/537.36" version="27.0.3">
  <diagram name="Pagina-1" id="vaOCFmSGmjO7FiVzWYV0">
    <mxGraphModel dx="2343" dy="803" grid="1" gridSize="10" guides="1" tooltips="1" connect="1" arrows="1" fold="1" page="1" pageScale="1" pageWidth="827" pageHeight="1169" background="none" math="0" shadow="0">
      <root>
        <mxCell id="0" />
        <mxCell id="1" parent="0" />
        <mxCell id="JRPKeL4zVLh7vCSeBcL3-1" value="CITTADINO" style="rounded=0;whiteSpace=wrap;html=1;" parent="1" vertex="1">
          <mxGeometry x="354" y="80" width="120" height="60" as="geometry" />
        </mxCell>
        <mxCell id="JRPKeL4zVLh7vCSeBcL3-2" value="" style="endArrow=none;html=1;rounded=0;" parent="1" edge="1">
          <mxGeometry width="50" height="50" relative="1" as="geometry">
            <mxPoint x="389" y="300" as="sourcePoint" />
            <mxPoint x="389" y="240" as="targetPoint" />
          </mxGeometry>
        </mxCell>
        <mxCell id="JRPKeL4zVLh7vCSeBcL3-3" value="FORNISCE" style="rhombus;whiteSpace=wrap;html=1;" parent="1" vertex="1">
          <mxGeometry x="349" y="300" width="80" height="80" as="geometry" />
        </mxCell>
        <mxCell id="JRPKeL4zVLh7vCSeBcL3-4" value="" style="endArrow=none;html=1;rounded=0;" parent="1" edge="1">
          <mxGeometry width="50" height="50" relative="1" as="geometry">
            <mxPoint x="389" y="440" as="sourcePoint" />
            <mxPoint x="389" y="380" as="targetPoint" />
          </mxGeometry>
        </mxCell>
        <mxCell id="JRPKeL4zVLh7vCSeBcL3-5" value="IDEA" style="rounded=0;whiteSpace=wrap;html=1;" parent="1" vertex="1">
          <mxGeometry x="329" y="440" width="120" height="60" as="geometry" />
        </mxCell>
        <mxCell id="JRPKeL4zVLh7vCSeBcL3-6" value="" style="endArrow=none;html=1;rounded=0;" parent="1" target="JRPKeL4zVLh7vCSeBcL3-7" edge="1">
          <mxGeometry width="50" height="50" relative="1" as="geometry">
            <mxPoint x="474" y="109.5" as="sourcePoint" />
            <mxPoint x="530" y="109.5" as="targetPoint" />
          </mxGeometry>
        </mxCell>
        <mxCell id="JRPKeL4zVLh7vCSeBcL3-7" value="RESIDENZA" style="rhombus;whiteSpace=wrap;html=1;" parent="1" vertex="1">
          <mxGeometry x="550" y="70" width="90" height="80" as="geometry" />
        </mxCell>
        <mxCell id="JRPKeL4zVLh7vCSeBcL3-8" value="" style="endArrow=none;html=1;rounded=0;entryX=0.5;entryY=1;entryDx=0;entryDy=0;" parent="1" target="JRPKeL4zVLh7vCSeBcL3-7" edge="1">
          <mxGeometry width="50" height="50" relative="1" as="geometry">
            <mxPoint x="595" y="200" as="sourcePoint" />
            <mxPoint x="610" y="170" as="targetPoint" />
          </mxGeometry>
        </mxCell>
        <mxCell id="JRPKeL4zVLh7vCSeBcL3-9" value="CITTA&#39;" style="rounded=0;whiteSpace=wrap;html=1;" parent="1" vertex="1">
          <mxGeometry x="540" y="200" width="120" height="60" as="geometry" />
        </mxCell>
        <mxCell id="JRPKeL4zVLh7vCSeBcL3-10" value="" style="endArrow=none;html=1;rounded=0;entryX=0.5;entryY=1;entryDx=0;entryDy=0;exitX=0.5;exitY=0;exitDx=0;exitDy=0;" parent="1" source="JRPKeL4zVLh7vCSeBcL3-11" target="JRPKeL4zVLh7vCSeBcL3-5" edge="1">
          <mxGeometry width="50" height="50" relative="1" as="geometry">
            <mxPoint x="420" y="610" as="sourcePoint" />
            <mxPoint x="484" y="610" as="targetPoint" />
          </mxGeometry>
        </mxCell>
        <mxCell id="JRPKeL4zVLh7vCSeBcL3-11" value="BASATO&lt;div&gt;SU&lt;/div&gt;" style="rhombus;whiteSpace=wrap;html=1;" parent="1" vertex="1">
          <mxGeometry x="350" y="570" width="80" height="80" as="geometry" />
        </mxCell>
        <mxCell id="JRPKeL4zVLh7vCSeBcL3-12" value="PROGETTO" style="rounded=0;whiteSpace=wrap;html=1;" parent="1" vertex="1">
          <mxGeometry x="329" y="710" width="120" height="60" as="geometry" />
        </mxCell>
        <mxCell id="JRPKeL4zVLh7vCSeBcL3-13" value="" style="endArrow=none;html=1;rounded=0;entryX=0.5;entryY=1;entryDx=0;entryDy=0;exitX=0.5;exitY=0;exitDx=0;exitDy=0;" parent="1" source="JRPKeL4zVLh7vCSeBcL3-12" target="JRPKeL4zVLh7vCSeBcL3-11" edge="1">
          <mxGeometry width="50" height="50" relative="1" as="geometry">
            <mxPoint x="390" y="690" as="sourcePoint" />
            <mxPoint x="350" y="610" as="targetPoint" />
          </mxGeometry>
        </mxCell>
        <mxCell id="JRPKeL4zVLh7vCSeBcL3-14" value="APPART-&lt;div&gt;ENENZA&lt;/div&gt;" style="rhombus;whiteSpace=wrap;html=1;" parent="1" vertex="1">
          <mxGeometry x="158" y="430" width="80" height="80" as="geometry" />
        </mxCell>
        <mxCell id="JRPKeL4zVLh7vCSeBcL3-15" value="SETTORE" style="rounded=0;whiteSpace=wrap;html=1;" parent="1" vertex="1">
          <mxGeometry x="-43" y="441" width="120" height="60" as="geometry" />
        </mxCell>
        <mxCell id="JRPKeL4zVLh7vCSeBcL3-16" value="" style="endArrow=none;html=1;rounded=0;entryX=0;entryY=0.5;entryDx=0;entryDy=0;exitX=1;exitY=0.5;exitDx=0;exitDy=0;" parent="1" source="JRPKeL4zVLh7vCSeBcL3-15" target="JRPKeL4zVLh7vCSeBcL3-14" edge="1">
          <mxGeometry width="50" height="50" relative="1" as="geometry">
            <mxPoint x="90" y="470" as="sourcePoint" />
            <mxPoint x="144" y="472" as="targetPoint" />
          </mxGeometry>
        </mxCell>
        <mxCell id="JRPKeL4zVLh7vCSeBcL3-17" value="" style="endArrow=none;html=1;rounded=0;entryX=0;entryY=0.5;entryDx=0;entryDy=0;exitX=1;exitY=0.5;exitDx=0;exitDy=0;" parent="1" source="JRPKeL4zVLh7vCSeBcL3-14" edge="1">
          <mxGeometry width="50" height="50" relative="1" as="geometry">
            <mxPoint x="240" y="460" as="sourcePoint" />
            <mxPoint x="329" y="469" as="targetPoint" />
          </mxGeometry>
        </mxCell>
        <mxCell id="JRPKeL4zVLh7vCSeBcL3-18" value="" style="shape=singleArrow;direction=north;whiteSpace=wrap;html=1;" parent="1" vertex="1">
          <mxGeometry x="374" y="140" width="30" height="40" as="geometry" />
        </mxCell>
        <mxCell id="JRPKeL4zVLh7vCSeBcL3-19" value="CITTADINO&lt;div&gt;ATTIVO&lt;/div&gt;" style="rounded=0;whiteSpace=wrap;html=1;" parent="1" vertex="1">
          <mxGeometry x="324" y="180" width="120" height="60" as="geometry" />
        </mxCell>
        <mxCell id="JRPKeL4zVLh7vCSeBcL3-22" value="" style="endArrow=none;html=1;rounded=0;entryX=0.5;entryY=1;entryDx=0;entryDy=0;exitX=0.5;exitY=0;exitDx=0;exitDy=0;" parent="1" source="JRPKeL4zVLh7vCSeBcL3-23" edge="1">
          <mxGeometry width="50" height="50" relative="1" as="geometry">
            <mxPoint x="420" y="880" as="sourcePoint" />
            <mxPoint x="389" y="770" as="targetPoint" />
          </mxGeometry>
        </mxCell>
        <mxCell id="JRPKeL4zVLh7vCSeBcL3-23" value="DA&amp;nbsp;&lt;div&gt;ORIGINE&lt;/div&gt;" style="rhombus;whiteSpace=wrap;html=1;" parent="1" vertex="1">
          <mxGeometry x="350" y="840" width="80" height="80" as="geometry" />
        </mxCell>
        <mxCell id="JRPKeL4zVLh7vCSeBcL3-24" value="" style="endArrow=none;html=1;rounded=0;entryX=1;entryY=0.5;entryDx=0;entryDy=0;" parent="1" target="JRPKeL4zVLh7vCSeBcL3-23" edge="1">
          <mxGeometry width="50" height="50" relative="1" as="geometry">
            <mxPoint x="520" y="880" as="sourcePoint" />
            <mxPoint x="350" y="880" as="targetPoint" />
          </mxGeometry>
        </mxCell>
        <mxCell id="JRPKeL4zVLh7vCSeBcL3-25" value="PRODOTTO" style="rounded=0;whiteSpace=wrap;html=1;" parent="1" vertex="1">
          <mxGeometry x="524" y="850" width="120" height="60" as="geometry" />
        </mxCell>
        <mxCell id="JRPKeL4zVLh7vCSeBcL3-27" value="" style="shape=singleArrow;direction=north;whiteSpace=wrap;html=1;" parent="1" vertex="1">
          <mxGeometry x="565" y="910" width="30" height="40" as="geometry" />
        </mxCell>
        <mxCell id="JRPKeL4zVLh7vCSeBcL3-28" value="APPLICAZIONE&lt;div&gt;TECNOLOGICA&lt;/div&gt;" style="rounded=0;whiteSpace=wrap;html=1;" parent="1" vertex="1">
          <mxGeometry x="395" y="951" width="120" height="60" as="geometry" />
        </mxCell>
        <mxCell id="JRPKeL4zVLh7vCSeBcL3-29" value="SISTEMA&lt;div&gt;FISICO&lt;/div&gt;" style="rounded=0;whiteSpace=wrap;html=1;" parent="1" vertex="1">
          <mxGeometry x="519" y="951" width="120" height="60" as="geometry" />
        </mxCell>
        <mxCell id="JRPKeL4zVLh7vCSeBcL3-30" value="SERIVIZIO" style="rounded=0;whiteSpace=wrap;html=1;" parent="1" vertex="1">
          <mxGeometry x="643" y="951" width="120" height="60" as="geometry" />
        </mxCell>
        <mxCell id="JRPKeL4zVLh7vCSeBcL3-31" value="FEEDBACK" style="rounded=0;whiteSpace=wrap;html=1;" parent="1" vertex="1">
          <mxGeometry x="555" y="570" width="120" height="60" as="geometry" />
        </mxCell>
        <mxCell id="JRPKeL4zVLh7vCSeBcL3-33" value="COMMENTA" style="rhombus;whiteSpace=wrap;html=1;" parent="1" vertex="1">
          <mxGeometry x="545" y="432" width="80" height="80" as="geometry" />
        </mxCell>
        <mxCell id="JRPKeL4zVLh7vCSeBcL3-35" value="" style="endArrow=none;html=1;rounded=0;entryX=0;entryY=0.5;entryDx=0;entryDy=0;" parent="1" target="JRPKeL4zVLh7vCSeBcL3-33" edge="1">
          <mxGeometry width="50" height="50" relative="1" as="geometry">
            <mxPoint x="450" y="472" as="sourcePoint" />
            <mxPoint x="505" y="452" as="targetPoint" />
          </mxGeometry>
        </mxCell>
        <mxCell id="JRPKeL4zVLh7vCSeBcL3-36" value="" style="endArrow=none;html=1;rounded=0;entryX=0.5;entryY=1;entryDx=0;entryDy=0;exitX=0.25;exitY=0;exitDx=0;exitDy=0;" parent="1" source="JRPKeL4zVLh7vCSeBcL3-31" target="JRPKeL4zVLh7vCSeBcL3-33" edge="1">
          <mxGeometry width="50" height="50" relative="1" as="geometry">
            <mxPoint x="579" y="570" as="sourcePoint" />
            <mxPoint x="584" y="512" as="targetPoint" />
          </mxGeometry>
        </mxCell>
        <mxCell id="JRPKeL4zVLh7vCSeBcL3-38" value="" style="endArrow=none;html=1;rounded=0;entryX=0.5;entryY=1;entryDx=0;entryDy=0;exitX=0.5;exitY=0;exitDx=0;exitDy=0;" parent="1" edge="1">
          <mxGeometry width="50" height="50" relative="1" as="geometry">
            <mxPoint x="585.5" y="700" as="sourcePoint" />
            <mxPoint x="584.5" y="630" as="targetPoint" />
          </mxGeometry>
        </mxCell>
        <mxCell id="JRPKeL4zVLh7vCSeBcL3-39" value="VALUTA-&lt;div&gt;ZIONE&lt;/div&gt;" style="rhombus;whiteSpace=wrap;html=1;" parent="1" vertex="1">
          <mxGeometry x="545" y="700" width="80" height="80" as="geometry" />
        </mxCell>
        <mxCell id="JRPKeL4zVLh7vCSeBcL3-40" value="" style="endArrow=none;html=1;rounded=0;entryX=0.5;entryY=1;entryDx=0;entryDy=0;" parent="1" edge="1">
          <mxGeometry width="50" height="50" relative="1" as="geometry">
            <mxPoint x="590.1500000000001" y="850" as="sourcePoint" />
            <mxPoint x="590.5" y="780" as="targetPoint" />
          </mxGeometry>
        </mxCell>
        <mxCell id="JRPKeL4zVLh7vCSeBcL3-42" value="" style="endArrow=none;html=1;rounded=0;entryX=0.5;entryY=1;entryDx=0;entryDy=0;" parent="1" edge="1">
          <mxGeometry width="50" height="50" relative="1" as="geometry">
            <mxPoint x="460" y="349" as="sourcePoint" />
            <mxPoint x="460" y="139" as="targetPoint" />
          </mxGeometry>
        </mxCell>
        <mxCell id="JRPKeL4zVLh7vCSeBcL3-43" value="" style="endArrow=none;html=1;rounded=0;" parent="1" edge="1">
          <mxGeometry width="50" height="50" relative="1" as="geometry">
            <mxPoint x="460" y="350" as="sourcePoint" />
            <mxPoint x="740" y="350" as="targetPoint" />
          </mxGeometry>
        </mxCell>
        <mxCell id="JRPKeL4zVLh7vCSeBcL3-44" value="" style="endArrow=none;html=1;rounded=0;" parent="1" edge="1">
          <mxGeometry width="50" height="50" relative="1" as="geometry">
            <mxPoint x="740" y="400" as="sourcePoint" />
            <mxPoint x="740" y="350" as="targetPoint" />
          </mxGeometry>
        </mxCell>
        <mxCell id="JRPKeL4zVLh7vCSeBcL3-45" value="LASCIA" style="rhombus;whiteSpace=wrap;html=1;" parent="1" vertex="1">
          <mxGeometry x="700" y="400" width="80" height="80" as="geometry" />
        </mxCell>
        <mxCell id="JRPKeL4zVLh7vCSeBcL3-46" value="" style="endArrow=none;html=1;rounded=0;exitX=0.5;exitY=1;exitDx=0;exitDy=0;" parent="1" source="JRPKeL4zVLh7vCSeBcL3-45" edge="1">
          <mxGeometry width="50" height="50" relative="1" as="geometry">
            <mxPoint x="450" y="370" as="sourcePoint" />
            <mxPoint x="740" y="600" as="targetPoint" />
          </mxGeometry>
        </mxCell>
        <mxCell id="JRPKeL4zVLh7vCSeBcL3-47" value="" style="endArrow=none;html=1;rounded=0;exitX=1;exitY=0.5;exitDx=0;exitDy=0;" parent="1" source="JRPKeL4zVLh7vCSeBcL3-31" edge="1">
          <mxGeometry width="50" height="50" relative="1" as="geometry">
            <mxPoint x="450" y="370" as="sourcePoint" />
            <mxPoint x="740" y="600" as="targetPoint" />
          </mxGeometry>
        </mxCell>
        <mxCell id="JRPKeL4zVLh7vCSeBcL3-48" value="" style="endArrow=none;html=1;rounded=0;exitX=0.5;exitY=1;exitDx=0;exitDy=0;entryX=0.5;entryY=0;entryDx=0;entryDy=0;" parent="1" source="JRPKeL4zVLh7vCSeBcL3-15" target="JRPKeL4zVLh7vCSeBcL3-49" edge="1">
          <mxGeometry width="50" height="50" relative="1" as="geometry">
            <mxPoint x="87" y="481" as="sourcePoint" />
            <mxPoint x="17" y="690" as="targetPoint" />
          </mxGeometry>
        </mxCell>
        <mxCell id="JRPKeL4zVLh7vCSeBcL3-49" value="S-E" style="rhombus;whiteSpace=wrap;html=1;" parent="1" vertex="1">
          <mxGeometry x="-23" y="700" width="80" height="80" as="geometry" />
        </mxCell>
        <mxCell id="JRPKeL4zVLh7vCSeBcL3-52" value="EVENTO" style="rounded=0;whiteSpace=wrap;html=1;" parent="1" vertex="1">
          <mxGeometry x="-60" y="1032" width="120" height="60" as="geometry" />
        </mxCell>
        <mxCell id="JRPKeL4zVLh7vCSeBcL3-53" value="BACHECA&amp;nbsp;" style="rounded=0;whiteSpace=wrap;html=1;" parent="1" vertex="1">
          <mxGeometry x="130" y="850" width="120" height="60" as="geometry" />
        </mxCell>
        <mxCell id="JRPKeL4zVLh7vCSeBcL3-54" value="ESPONE" style="rhombus;whiteSpace=wrap;html=1;" parent="1" vertex="1">
          <mxGeometry x="230" y="941" width="80" height="80" as="geometry" />
        </mxCell>
        <mxCell id="JRPKeL4zVLh7vCSeBcL3-56" value="" style="endArrow=none;html=1;rounded=0;entryX=1;entryY=0.5;entryDx=0;entryDy=0;" parent="1" target="JRPKeL4zVLh7vCSeBcL3-54" edge="1">
          <mxGeometry width="50" height="50" relative="1" as="geometry">
            <mxPoint x="350" y="981" as="sourcePoint" />
            <mxPoint x="390" y="830" as="targetPoint" />
          </mxGeometry>
        </mxCell>
        <mxCell id="JRPKeL4zVLh7vCSeBcL3-63" value="" style="endArrow=none;html=1;rounded=0;exitX=0.5;exitY=0;exitDx=0;exitDy=0;" parent="1" source="JRPKeL4zVLh7vCSeBcL3-54" edge="1">
          <mxGeometry width="50" height="50" relative="1" as="geometry">
            <mxPoint x="340" y="880" as="sourcePoint" />
            <mxPoint x="270" y="890" as="targetPoint" />
          </mxGeometry>
        </mxCell>
        <mxCell id="JRPKeL4zVLh7vCSeBcL3-64" value="" style="endArrow=none;html=1;rounded=0;" parent="1" edge="1">
          <mxGeometry width="50" height="50" relative="1" as="geometry">
            <mxPoint x="270" y="890" as="sourcePoint" />
            <mxPoint x="250" y="890" as="targetPoint" />
          </mxGeometry>
        </mxCell>
        <mxCell id="JRPKeL4zVLh7vCSeBcL3-65" value="" style="endArrow=none;html=1;rounded=0;entryX=0.5;entryY=1;entryDx=0;entryDy=0;exitX=0.65;exitY=0.012;exitDx=0;exitDy=0;exitPerimeter=0;" parent="1" source="JRPKeL4zVLh7vCSeBcL3-52" target="JRPKeL4zVLh7vCSeBcL3-49" edge="1">
          <mxGeometry width="50" height="50" relative="1" as="geometry">
            <mxPoint x="340" y="880" as="sourcePoint" />
            <mxPoint x="390" y="830" as="targetPoint" />
          </mxGeometry>
        </mxCell>
        <mxCell id="JRPKeL4zVLh7vCSeBcL3-66" value="OSPITA" style="rhombus;whiteSpace=wrap;html=1;" parent="1" vertex="1">
          <mxGeometry x="50" y="951" width="80" height="80" as="geometry" />
        </mxCell>
        <mxCell id="JRPKeL4zVLh7vCSeBcL3-67" value="" style="endArrow=none;html=1;rounded=0;exitX=0;exitY=0.5;exitDx=0;exitDy=0;" parent="1" source="JRPKeL4zVLh7vCSeBcL3-53" edge="1">
          <mxGeometry width="50" height="50" relative="1" as="geometry">
            <mxPoint x="340" y="880" as="sourcePoint" />
            <mxPoint x="80" y="880" as="targetPoint" />
          </mxGeometry>
        </mxCell>
        <mxCell id="JRPKeL4zVLh7vCSeBcL3-68" value="" style="endArrow=none;html=1;rounded=0;exitX=0.363;exitY=0.097;exitDx=0;exitDy=0;exitPerimeter=0;" parent="1" source="JRPKeL4zVLh7vCSeBcL3-66" edge="1">
          <mxGeometry width="50" height="50" relative="1" as="geometry">
            <mxPoint x="340" y="880" as="sourcePoint" />
            <mxPoint x="80" y="880" as="targetPoint" />
          </mxGeometry>
        </mxCell>
        <mxCell id="JRPKeL4zVLh7vCSeBcL3-69" value="" style="endArrow=none;html=1;rounded=0;exitX=0.5;exitY=1;exitDx=0;exitDy=0;" parent="1" edge="1">
          <mxGeometry width="50" height="50" relative="1" as="geometry">
            <mxPoint x="90" y="1029" as="sourcePoint" />
            <mxPoint x="90" y="1078" as="targetPoint" />
          </mxGeometry>
        </mxCell>
        <mxCell id="JRPKeL4zVLh7vCSeBcL3-70" value="" style="endArrow=none;html=1;rounded=0;entryX=1;entryY=0.75;entryDx=0;entryDy=0;" parent="1" target="JRPKeL4zVLh7vCSeBcL3-52" edge="1">
          <mxGeometry width="50" height="50" relative="1" as="geometry">
            <mxPoint x="90" y="1077" as="sourcePoint" />
            <mxPoint x="80" y="1100" as="targetPoint" />
          </mxGeometry>
        </mxCell>
        <mxCell id="JRPKeL4zVLh7vCSeBcL3-72" value="" style="endArrow=none;html=1;rounded=0;" parent="1" edge="1">
          <mxGeometry width="50" height="50" relative="1" as="geometry">
            <mxPoint x="-170" y="1066" as="sourcePoint" />
            <mxPoint x="-60" y="1066" as="targetPoint" />
          </mxGeometry>
        </mxCell>
        <mxCell id="JRPKeL4zVLh7vCSeBcL3-73" value="" style="endArrow=none;html=1;rounded=0;" parent="1" edge="1">
          <mxGeometry width="50" height="50" relative="1" as="geometry">
            <mxPoint x="-171" y="1066" as="sourcePoint" />
            <mxPoint x="-170" y="510" as="targetPoint" />
          </mxGeometry>
        </mxCell>
        <mxCell id="JRPKeL4zVLh7vCSeBcL3-74" value="PARTECIP-&lt;div&gt;AZIONE&lt;/div&gt;" style="rhombus;whiteSpace=wrap;html=1;" parent="1" vertex="1">
          <mxGeometry x="-180" y="88" width="80" height="80" as="geometry" />
        </mxCell>
        <mxCell id="JRPKeL4zVLh7vCSeBcL3-75" value="" style="endArrow=none;html=1;rounded=0;entryX=1;entryY=0;entryDx=0;entryDy=0;exitX=0;exitY=0.5;exitDx=0;exitDy=0;" parent="1" source="JRPKeL4zVLh7vCSeBcL3-1" target="JRPKeL4zVLh7vCSeBcL3-74" edge="1">
          <mxGeometry width="50" height="50" relative="1" as="geometry">
            <mxPoint x="340" y="220" as="sourcePoint" />
            <mxPoint x="390" y="170" as="targetPoint" />
          </mxGeometry>
        </mxCell>
        <mxCell id="JRPKeL4zVLh7vCSeBcL3-77" value="(p,e)" style="text;html=1;align=center;verticalAlign=middle;resizable=0;points=[];autosize=1;strokeColor=none;fillColor=none;strokeWidth=7;fontSize=18;" parent="1" vertex="1">
          <mxGeometry x="329" y="140" width="60" height="40" as="geometry" />
        </mxCell>
        <mxCell id="JRPKeL4zVLh7vCSeBcL3-79" value="" style="endArrow=none;html=1;rounded=0;entryX=0.25;entryY=0;entryDx=0;entryDy=0;" parent="1" source="JRPKeL4zVLh7vCSeBcL3-80" target="JRPKeL4zVLh7vCSeBcL3-1" edge="1">
          <mxGeometry width="50" height="50" relative="1" as="geometry">
            <mxPoint x="384" y="50" as="sourcePoint" />
            <mxPoint x="210" y="190" as="targetPoint" />
          </mxGeometry>
        </mxCell>
        <mxCell id="JRPKeL4zVLh7vCSeBcL3-81" value="" style="endArrow=none;html=1;rounded=0;entryX=0.25;entryY=0;entryDx=0;entryDy=0;" parent="1" target="JRPKeL4zVLh7vCSeBcL3-80" edge="1">
          <mxGeometry width="50" height="50" relative="1" as="geometry">
            <mxPoint x="384" y="50" as="sourcePoint" />
            <mxPoint x="384" y="80" as="targetPoint" />
          </mxGeometry>
        </mxCell>
        <mxCell id="JRPKeL4zVLh7vCSeBcL3-80" value="" style="ellipse;whiteSpace=wrap;html=1;aspect=fixed;fontColor=#000000;labelBackgroundColor=none;labelBorderColor=none;noLabel=1;fillColor=#FA6800;strokeColor=#C73500;" parent="1" vertex="1">
          <mxGeometry x="379" y="50" width="10" height="10" as="geometry" />
        </mxCell>
        <mxCell id="JRPKeL4zVLh7vCSeBcL3-82" value="CF" style="text;html=1;align=center;verticalAlign=middle;resizable=0;points=[];autosize=1;strokeColor=none;fillColor=none;" parent="1" vertex="1">
          <mxGeometry x="364" y="26" width="40" height="30" as="geometry" />
        </mxCell>
        <mxCell id="JRPKeL4zVLh7vCSeBcL3-83" value="" style="endArrow=none;html=1;rounded=0;entryX=0.25;entryY=0;entryDx=0;entryDy=0;" parent="1" source="JRPKeL4zVLh7vCSeBcL3-85" edge="1">
          <mxGeometry width="50" height="50" relative="1" as="geometry">
            <mxPoint x="403" y="50" as="sourcePoint" />
            <mxPoint x="403" y="80" as="targetPoint" />
          </mxGeometry>
        </mxCell>
        <mxCell id="JRPKeL4zVLh7vCSeBcL3-84" value="" style="endArrow=none;html=1;rounded=0;entryX=0.25;entryY=0;entryDx=0;entryDy=0;" parent="1" target="JRPKeL4zVLh7vCSeBcL3-85" edge="1">
          <mxGeometry width="50" height="50" relative="1" as="geometry">
            <mxPoint x="403" y="50" as="sourcePoint" />
            <mxPoint x="403" y="80" as="targetPoint" />
          </mxGeometry>
        </mxCell>
        <mxCell id="JRPKeL4zVLh7vCSeBcL3-85" value="" style="ellipse;whiteSpace=wrap;html=1;aspect=fixed;fontColor=none;labelBackgroundColor=none;labelBorderColor=none;noLabel=1;" parent="1" vertex="1">
          <mxGeometry x="398" y="50" width="10" height="10" as="geometry" />
        </mxCell>
        <mxCell id="JRPKeL4zVLh7vCSeBcL3-86" value="NOME" style="text;html=1;align=center;verticalAlign=middle;resizable=0;points=[];autosize=1;strokeColor=none;fillColor=none;" parent="1" vertex="1">
          <mxGeometry x="385" y="26" width="60" height="30" as="geometry" />
        </mxCell>
        <mxCell id="JRPKeL4zVLh7vCSeBcL3-87" value="" style="endArrow=none;html=1;rounded=0;entryX=0.25;entryY=0;entryDx=0;entryDy=0;" parent="1" source="JRPKeL4zVLh7vCSeBcL3-89" edge="1">
          <mxGeometry width="50" height="50" relative="1" as="geometry">
            <mxPoint x="450" y="50" as="sourcePoint" />
            <mxPoint x="450" y="80" as="targetPoint" />
          </mxGeometry>
        </mxCell>
        <mxCell id="JRPKeL4zVLh7vCSeBcL3-88" value="" style="endArrow=none;html=1;rounded=0;entryX=0.25;entryY=0;entryDx=0;entryDy=0;" parent="1" target="JRPKeL4zVLh7vCSeBcL3-89" edge="1">
          <mxGeometry width="50" height="50" relative="1" as="geometry">
            <mxPoint x="450" y="50" as="sourcePoint" />
            <mxPoint x="450" y="80" as="targetPoint" />
          </mxGeometry>
        </mxCell>
        <mxCell id="JRPKeL4zVLh7vCSeBcL3-89" value="" style="ellipse;whiteSpace=wrap;html=1;aspect=fixed;fontColor=none;labelBackgroundColor=none;labelBorderColor=none;noLabel=1;" parent="1" vertex="1">
          <mxGeometry x="445" y="50" width="10" height="10" as="geometry" />
        </mxCell>
        <mxCell id="JRPKeL4zVLh7vCSeBcL3-90" value="COGNOME" style="text;html=1;align=center;verticalAlign=middle;resizable=0;points=[];autosize=1;strokeColor=none;fillColor=none;" parent="1" vertex="1">
          <mxGeometry x="424" y="26" width="90" height="30" as="geometry" />
        </mxCell>
        <mxCell id="JRPKeL4zVLh7vCSeBcL3-91" value="" style="endArrow=none;html=1;rounded=0;" parent="1" edge="1">
          <mxGeometry width="50" height="50" relative="1" as="geometry">
            <mxPoint x="272" y="200" as="sourcePoint" />
            <mxPoint x="322" y="200" as="targetPoint" />
          </mxGeometry>
        </mxCell>
        <mxCell id="JRPKeL4zVLh7vCSeBcL3-93" value="" style="ellipse;whiteSpace=wrap;html=1;aspect=fixed;fontColor=none;labelBackgroundColor=none;labelBorderColor=none;noLabel=1;rotation=-169;" parent="1" vertex="1">
          <mxGeometry x="261" y="195" width="10" height="10" as="geometry" />
        </mxCell>
        <mxCell id="JRPKeL4zVLh7vCSeBcL3-97" value="DATA&amp;nbsp; ATTIVAZIONE" style="text;html=1;align=center;verticalAlign=middle;resizable=0;points=[];autosize=1;strokeColor=none;fillColor=none;" parent="1" vertex="1">
          <mxGeometry x="130" y="185" width="140" height="30" as="geometry" />
        </mxCell>
        <mxCell id="JRPKeL4zVLh7vCSeBcL3-98" value="" style="endArrow=none;html=1;rounded=0;" parent="1" edge="1">
          <mxGeometry width="50" height="50" relative="1" as="geometry">
            <mxPoint x="274" y="217" as="sourcePoint" />
            <mxPoint x="324" y="217" as="targetPoint" />
          </mxGeometry>
        </mxCell>
        <mxCell id="JRPKeL4zVLh7vCSeBcL3-99" value="" style="ellipse;whiteSpace=wrap;html=1;aspect=fixed;fontColor=none;labelBackgroundColor=none;labelBorderColor=none;noLabel=1;rotation=-169;" parent="1" vertex="1">
          <mxGeometry x="265" y="212" width="10" height="10" as="geometry" />
        </mxCell>
        <mxCell id="JRPKeL4zVLh7vCSeBcL3-100" value="NUMERO DI PROPOSTE" style="text;html=1;align=center;verticalAlign=middle;resizable=0;points=[];autosize=1;strokeColor=none;fillColor=none;" parent="1" vertex="1">
          <mxGeometry x="112" y="202" width="160" height="30" as="geometry" />
        </mxCell>
        <mxCell id="JRPKeL4zVLh7vCSeBcL3-101" value="" style="endArrow=none;html=1;rounded=0;" parent="1" edge="1">
          <mxGeometry width="50" height="50" relative="1" as="geometry">
            <mxPoint x="574" y="290" as="sourcePoint" />
            <mxPoint x="574" y="260" as="targetPoint" />
          </mxGeometry>
        </mxCell>
        <mxCell id="JRPKeL4zVLh7vCSeBcL3-103" value="" style="ellipse;whiteSpace=wrap;html=1;aspect=fixed;fillColor=light-dark(#FFFFFF,#E96B12);" parent="1" vertex="1">
          <mxGeometry x="99" y="426" width="10" height="10" as="geometry" />
        </mxCell>
        <mxCell id="JRPKeL4zVLh7vCSeBcL3-104" value="" style="ellipse;whiteSpace=wrap;html=1;aspect=fixed;" parent="1" vertex="1">
          <mxGeometry x="569" y="289" width="10" height="10" as="geometry" />
        </mxCell>
        <mxCell id="JRPKeL4zVLh7vCSeBcL3-105" value="NOME" style="text;html=1;align=center;verticalAlign=middle;resizable=0;points=[];autosize=1;strokeColor=none;fillColor=none;" parent="1" vertex="1">
          <mxGeometry x="544" y="299" width="60" height="30" as="geometry" />
        </mxCell>
        <mxCell id="JRPKeL4zVLh7vCSeBcL3-106" value="" style="endArrow=none;html=1;rounded=0;" parent="1" edge="1">
          <mxGeometry width="50" height="50" relative="1" as="geometry">
            <mxPoint x="603" y="290" as="sourcePoint" />
            <mxPoint x="603" y="260" as="targetPoint" />
          </mxGeometry>
        </mxCell>
        <mxCell id="JRPKeL4zVLh7vCSeBcL3-107" value="" style="ellipse;whiteSpace=wrap;html=1;aspect=fixed;" parent="1" vertex="1">
          <mxGeometry x="598" y="289" width="10" height="10" as="geometry" />
        </mxCell>
        <mxCell id="JRPKeL4zVLh7vCSeBcL3-108" value="CAP" style="text;html=1;align=center;verticalAlign=middle;resizable=0;points=[];autosize=1;strokeColor=none;fillColor=none;" parent="1" vertex="1">
          <mxGeometry x="590" y="299" width="50" height="30" as="geometry" />
        </mxCell>
        <mxCell id="JRPKeL4zVLh7vCSeBcL3-109" value="" style="endArrow=none;html=1;rounded=0;" parent="1" edge="1">
          <mxGeometry width="50" height="50" relative="1" as="geometry">
            <mxPoint x="560" y="279" as="sourcePoint" />
            <mxPoint x="629" y="279" as="targetPoint" />
          </mxGeometry>
        </mxCell>
        <mxCell id="JRPKeL4zVLh7vCSeBcL3-110" value="" style="ellipse;whiteSpace=wrap;html=1;aspect=fixed;fillColor=light-dark(#E51400,#E96B12);fontColor=#ffffff;strokeColor=#B20000;" parent="1" vertex="1">
          <mxGeometry x="551" y="275" width="10" height="10" as="geometry" />
        </mxCell>
        <mxCell id="JRPKeL4zVLh7vCSeBcL3-112" value="(1,1)" style="text;html=1;align=center;verticalAlign=middle;resizable=0;points=[];autosize=1;strokeColor=none;fillColor=none;strokeWidth=7;fontSize=18;" parent="1" vertex="1">
          <mxGeometry x="469" y="105" width="60" height="40" as="geometry" />
        </mxCell>
        <mxCell id="JRPKeL4zVLh7vCSeBcL3-113" value="(1,N)" style="text;html=1;align=center;verticalAlign=middle;resizable=0;points=[];autosize=1;strokeColor=none;fillColor=none;strokeWidth=7;fontSize=18;" parent="1" vertex="1">
          <mxGeometry x="538" y="161" width="60" height="40" as="geometry" />
        </mxCell>
        <mxCell id="JRPKeL4zVLh7vCSeBcL3-115" value="(1,N)" style="text;html=1;align=center;verticalAlign=middle;resizable=0;points=[];autosize=1;strokeColor=none;fillColor=none;strokeWidth=7;fontSize=18;" parent="1" vertex="1">
          <mxGeometry x="333" y="235" width="60" height="40" as="geometry" />
        </mxCell>
        <mxCell id="JRPKeL4zVLh7vCSeBcL3-124" value="" style="endArrow=none;html=1;rounded=0;entryX=0.075;entryY=-0.004;entryDx=0;entryDy=0;entryPerimeter=0;" parent="1" source="JRPKeL4zVLh7vCSeBcL3-126" target="JRPKeL4zVLh7vCSeBcL3-5" edge="1">
          <mxGeometry width="50" height="50" relative="1" as="geometry">
            <mxPoint x="314" y="404" as="sourcePoint" />
            <mxPoint x="314" y="434" as="targetPoint" />
          </mxGeometry>
        </mxCell>
        <mxCell id="JRPKeL4zVLh7vCSeBcL3-125" value="" style="endArrow=none;html=1;rounded=0;entryX=0.25;entryY=0;entryDx=0;entryDy=0;" parent="1" target="JRPKeL4zVLh7vCSeBcL3-126" edge="1">
          <mxGeometry width="50" height="50" relative="1" as="geometry">
            <mxPoint x="314" y="404" as="sourcePoint" />
            <mxPoint x="314" y="434" as="targetPoint" />
          </mxGeometry>
        </mxCell>
        <mxCell id="JRPKeL4zVLh7vCSeBcL3-126" value="" style="ellipse;whiteSpace=wrap;html=1;aspect=fixed;fontColor=none;labelBackgroundColor=none;labelBorderColor=none;noLabel=1;" parent="1" vertex="1">
          <mxGeometry x="309" y="404" width="10" height="10" as="geometry" />
        </mxCell>
        <mxCell id="JRPKeL4zVLh7vCSeBcL3-127" value="ID_IDEA" style="text;html=1;align=center;verticalAlign=middle;resizable=0;points=[];autosize=1;strokeColor=none;fillColor=none;" parent="1" vertex="1">
          <mxGeometry x="292" y="380" width="70" height="30" as="geometry" />
        </mxCell>
        <mxCell id="JRPKeL4zVLh7vCSeBcL3-128" value="" style="endArrow=none;html=1;rounded=0;entryX=0.75;entryY=0;entryDx=0;entryDy=0;" parent="1" source="JRPKeL4zVLh7vCSeBcL3-130" target="JRPKeL4zVLh7vCSeBcL3-5" edge="1">
          <mxGeometry width="50" height="50" relative="1" as="geometry">
            <mxPoint x="368" y="403" as="sourcePoint" />
            <mxPoint x="355.99999999999955" y="435" as="targetPoint" />
          </mxGeometry>
        </mxCell>
        <mxCell id="JRPKeL4zVLh7vCSeBcL3-130" value="" style="ellipse;whiteSpace=wrap;html=1;aspect=fixed;fontColor=none;labelBackgroundColor=none;labelBorderColor=none;noLabel=1;" parent="1" vertex="1">
          <mxGeometry x="424" y="406" width="10" height="10" as="geometry" />
        </mxCell>
        <mxCell id="JRPKeL4zVLh7vCSeBcL3-131" value="DESCR" style="text;html=1;align=center;verticalAlign=middle;resizable=0;points=[];autosize=1;strokeColor=none;fillColor=none;" parent="1" vertex="1">
          <mxGeometry x="399" y="376" width="70" height="30" as="geometry" />
        </mxCell>
        <mxCell id="JRPKeL4zVLh7vCSeBcL3-137" value="DATA&amp;nbsp;&lt;div&gt;INSERIMENTO&lt;/div&gt;" style="text;html=1;align=center;verticalAlign=middle;resizable=0;points=[];autosize=1;strokeColor=none;fillColor=none;" parent="1" vertex="1">
          <mxGeometry x="445" y="395" width="110" height="40" as="geometry" />
        </mxCell>
        <mxCell id="JRPKeL4zVLh7vCSeBcL3-139" value="" style="endArrow=none;html=1;rounded=0;" parent="1" edge="1">
          <mxGeometry width="50" height="50" relative="1" as="geometry">
            <mxPoint x="290" y="290" as="sourcePoint" />
            <mxPoint x="388" y="289" as="targetPoint" />
          </mxGeometry>
        </mxCell>
        <mxCell id="JRPKeL4zVLh7vCSeBcL3-141" value="" style="endArrow=none;html=1;rounded=0;" parent="1" edge="1">
          <mxGeometry width="50" height="50" relative="1" as="geometry">
            <mxPoint x="292" y="430" as="sourcePoint" />
            <mxPoint x="292" y="290" as="targetPoint" />
          </mxGeometry>
        </mxCell>
        <mxCell id="JRPKeL4zVLh7vCSeBcL3-144" value="" style="endArrow=none;html=1;rounded=0;" parent="1" source="JRPKeL4zVLh7vCSeBcL3-143" edge="1">
          <mxGeometry width="50" height="50" relative="1" as="geometry">
            <mxPoint x="291" y="430" as="sourcePoint" />
            <mxPoint x="341" y="430" as="targetPoint" />
          </mxGeometry>
        </mxCell>
        <mxCell id="JRPKeL4zVLh7vCSeBcL3-147" value="" style="endArrow=none;html=1;rounded=0;entryX=0.75;entryY=0;entryDx=0;entryDy=0;" parent="1" source="JRPKeL4zVLh7vCSeBcL3-148" edge="1">
          <mxGeometry width="50" height="50" relative="1" as="geometry">
            <mxPoint x="396" y="403" as="sourcePoint" />
            <mxPoint x="447" y="440" as="targetPoint" />
          </mxGeometry>
        </mxCell>
        <mxCell id="JRPKeL4zVLh7vCSeBcL3-148" value="" style="ellipse;whiteSpace=wrap;html=1;aspect=fixed;fontColor=none;labelBackgroundColor=none;labelBorderColor=none;noLabel=1;" parent="1" vertex="1">
          <mxGeometry x="452" y="406" width="10" height="10" as="geometry" />
        </mxCell>
        <mxCell id="JRPKeL4zVLh7vCSeBcL3-152" value="" style="endArrow=none;html=1;rounded=0;" parent="1" target="JRPKeL4zVLh7vCSeBcL3-143" edge="1">
          <mxGeometry width="50" height="50" relative="1" as="geometry">
            <mxPoint x="291" y="430" as="sourcePoint" />
            <mxPoint x="341" y="430" as="targetPoint" />
          </mxGeometry>
        </mxCell>
        <mxCell id="JRPKeL4zVLh7vCSeBcL3-143" value="" style="ellipse;whiteSpace=wrap;html=1;aspect=fixed;fillColor=light-dark(#FFFFFF,#E96B12);" parent="1" vertex="1">
          <mxGeometry x="337" y="425" width="10" height="10" as="geometry" />
        </mxCell>
        <mxCell id="JRPKeL4zVLh7vCSeBcL3-153" value="(1,1)" style="text;html=1;align=center;verticalAlign=middle;resizable=0;points=[];autosize=1;strokeColor=none;fillColor=none;strokeWidth=7;fontSize=18;" parent="1" vertex="1">
          <mxGeometry x="338" y="403" width="60" height="40" as="geometry" />
        </mxCell>
        <mxCell id="JRPKeL4zVLh7vCSeBcL3-154" value="(1,1)" style="text;html=1;align=center;verticalAlign=middle;resizable=0;points=[];autosize=1;strokeColor=none;fillColor=none;strokeWidth=7;fontSize=18;" parent="1" vertex="1">
          <mxGeometry x="338" y="492" width="60" height="40" as="geometry" />
        </mxCell>
        <mxCell id="JRPKeL4zVLh7vCSeBcL3-155" value="(1,1)" style="text;html=1;align=center;verticalAlign=middle;resizable=0;points=[];autosize=1;strokeColor=none;fillColor=none;strokeWidth=7;fontSize=18;" parent="1" vertex="1">
          <mxGeometry x="338" y="675" width="60" height="40" as="geometry" />
        </mxCell>
        <mxCell id="JRPKeL4zVLh7vCSeBcL3-156" value="" style="endArrow=none;html=1;rounded=0;" parent="1" edge="1">
          <mxGeometry width="50" height="50" relative="1" as="geometry">
            <mxPoint x="395" y="710" as="sourcePoint" />
            <mxPoint x="410" y="680" as="targetPoint" />
          </mxGeometry>
        </mxCell>
        <mxCell id="JRPKeL4zVLh7vCSeBcL3-157" value="" style="ellipse;whiteSpace=wrap;html=1;aspect=fixed;" parent="1" vertex="1">
          <mxGeometry x="407" y="671" width="10" height="10" as="geometry" />
        </mxCell>
        <mxCell id="JRPKeL4zVLh7vCSeBcL3-158" value="ID_PROGETTO" style="text;html=1;align=center;verticalAlign=middle;resizable=0;points=[];autosize=1;strokeColor=none;fillColor=none;" parent="1" vertex="1">
          <mxGeometry x="380" y="645" width="110" height="30" as="geometry" />
        </mxCell>
        <mxCell id="JRPKeL4zVLh7vCSeBcL3-159" value="" style="endArrow=none;html=1;rounded=0;" parent="1" edge="1">
          <mxGeometry width="50" height="50" relative="1" as="geometry">
            <mxPoint x="445" y="710" as="sourcePoint" />
            <mxPoint x="480" y="680" as="targetPoint" />
          </mxGeometry>
        </mxCell>
        <mxCell id="JRPKeL4zVLh7vCSeBcL3-160" value="" style="ellipse;whiteSpace=wrap;html=1;aspect=fixed;" parent="1" vertex="1">
          <mxGeometry x="480" y="671" width="10" height="10" as="geometry" />
        </mxCell>
        <mxCell id="JRPKeL4zVLh7vCSeBcL3-161" value="TITOLO" style="text;html=1;align=center;verticalAlign=middle;resizable=0;points=[];autosize=1;strokeColor=none;fillColor=none;" parent="1" vertex="1">
          <mxGeometry x="468" y="647" width="70" height="30" as="geometry" />
        </mxCell>
        <mxCell id="JRPKeL4zVLh7vCSeBcL3-162" value="" style="endArrow=none;html=1;rounded=0;" parent="1" edge="1">
          <mxGeometry width="50" height="50" relative="1" as="geometry">
            <mxPoint x="449" y="740" as="sourcePoint" />
            <mxPoint x="480" y="710" as="targetPoint" />
          </mxGeometry>
        </mxCell>
        <mxCell id="JRPKeL4zVLh7vCSeBcL3-163" value="" style="ellipse;whiteSpace=wrap;html=1;aspect=fixed;" parent="1" vertex="1">
          <mxGeometry x="479" y="701" width="10" height="10" as="geometry" />
        </mxCell>
        <mxCell id="JRPKeL4zVLh7vCSeBcL3-165" value="STATO" style="text;html=1;align=center;verticalAlign=middle;resizable=0;points=[];autosize=1;strokeColor=none;fillColor=none;" parent="1" vertex="1">
          <mxGeometry x="482" y="686" width="60" height="30" as="geometry" />
        </mxCell>
        <mxCell id="JRPKeL4zVLh7vCSeBcL3-166" value="(1,1)" style="text;html=1;align=center;verticalAlign=middle;resizable=0;points=[];autosize=1;strokeColor=none;fillColor=none;strokeWidth=7;fontSize=18;" parent="1" vertex="1">
          <mxGeometry x="468" y="840" width="60" height="40" as="geometry" />
        </mxCell>
        <mxCell id="JRPKeL4zVLh7vCSeBcL3-167" value="(1,N)" style="text;html=1;align=center;verticalAlign=middle;resizable=0;points=[];autosize=1;strokeColor=none;fillColor=none;strokeWidth=7;fontSize=18;" parent="1" vertex="1">
          <mxGeometry x="384" y="770" width="60" height="40" as="geometry" />
        </mxCell>
        <mxCell id="JRPKeL4zVLh7vCSeBcL3-168" value="" style="endArrow=none;html=1;rounded=0;" parent="1" edge="1">
          <mxGeometry width="50" height="50" relative="1" as="geometry">
            <mxPoint x="528" y="850" as="sourcePoint" />
            <mxPoint x="528" y="820" as="targetPoint" />
          </mxGeometry>
        </mxCell>
        <mxCell id="JRPKeL4zVLh7vCSeBcL3-170" value="" style="ellipse;whiteSpace=wrap;html=1;aspect=fixed;fillColor=light-dark(#FFFFFF,#E96B12);" parent="1" vertex="1">
          <mxGeometry x="523" y="810" width="10" height="10" as="geometry" />
        </mxCell>
        <mxCell id="JRPKeL4zVLh7vCSeBcL3-171" value="ID_PRODOTTO" style="text;html=1;align=center;verticalAlign=middle;resizable=0;points=[];autosize=1;strokeColor=none;fillColor=none;" parent="1" vertex="1">
          <mxGeometry x="448" y="778" width="110" height="30" as="geometry" />
        </mxCell>
        <mxCell id="JRPKeL4zVLh7vCSeBcL3-174" value="" style="endArrow=none;html=1;rounded=0;exitX=1.017;exitY=0.319;exitDx=0;exitDy=0;exitPerimeter=0;" parent="1" edge="1">
          <mxGeometry width="50" height="50" relative="1" as="geometry">
            <mxPoint x="393" y="687.0000000000002" as="sourcePoint" />
            <mxPoint x="502" y="687" as="targetPoint" />
          </mxGeometry>
        </mxCell>
        <mxCell id="JRPKeL4zVLh7vCSeBcL3-173" value="" style="ellipse;whiteSpace=wrap;html=1;aspect=fixed;fillColor=light-dark(#FFFFFF,#E96B12);" parent="1" vertex="1">
          <mxGeometry x="498" y="681" width="10" height="10" as="geometry" />
        </mxCell>
        <mxCell id="JRPKeL4zVLh7vCSeBcL3-176" value="" style="endArrow=none;html=1;rounded=0;entryX=0.75;entryY=0;entryDx=0;entryDy=0;" parent="1" source="JRPKeL4zVLh7vCSeBcL3-177" edge="1">
          <mxGeometry width="50" height="50" relative="1" as="geometry">
            <mxPoint x="636" y="810" as="sourcePoint" />
            <mxPoint x="636" y="850" as="targetPoint" />
          </mxGeometry>
        </mxCell>
        <mxCell id="JRPKeL4zVLh7vCSeBcL3-178" value="" style="endArrow=none;html=1;rounded=0;entryX=0.75;entryY=0;entryDx=0;entryDy=0;" parent="1" target="JRPKeL4zVLh7vCSeBcL3-177" edge="1">
          <mxGeometry width="50" height="50" relative="1" as="geometry">
            <mxPoint x="636" y="810" as="sourcePoint" />
            <mxPoint x="636" y="850" as="targetPoint" />
          </mxGeometry>
        </mxCell>
        <mxCell id="JRPKeL4zVLh7vCSeBcL3-177" value="" style="ellipse;whiteSpace=wrap;html=1;aspect=fixed;" parent="1" vertex="1">
          <mxGeometry x="632" y="800" width="10" height="10" as="geometry" />
        </mxCell>
        <mxCell id="JRPKeL4zVLh7vCSeBcL3-179" value="DATA_CREAZIONE" style="text;html=1;align=center;verticalAlign=middle;resizable=0;points=[];autosize=1;strokeColor=none;fillColor=none;" parent="1" vertex="1">
          <mxGeometry x="607" y="777" width="130" height="30" as="geometry" />
        </mxCell>
        <mxCell id="JRPKeL4zVLh7vCSeBcL3-180" value="" style="endArrow=none;html=1;rounded=0;entryX=0.25;entryY=0;entryDx=0;entryDy=0;" parent="1" source="JRPKeL4zVLh7vCSeBcL3-181" target="JRPKeL4zVLh7vCSeBcL3-25" edge="1">
          <mxGeometry width="50" height="50" relative="1" as="geometry">
            <mxPoint x="554" y="820" as="sourcePoint" />
            <mxPoint x="230" y="710" as="targetPoint" />
          </mxGeometry>
        </mxCell>
        <mxCell id="JRPKeL4zVLh7vCSeBcL3-182" value="" style="endArrow=none;html=1;rounded=0;entryX=0.25;entryY=0;entryDx=0;entryDy=0;" parent="1" target="JRPKeL4zVLh7vCSeBcL3-181" edge="1">
          <mxGeometry width="50" height="50" relative="1" as="geometry">
            <mxPoint x="554" y="820" as="sourcePoint" />
            <mxPoint x="554" y="850" as="targetPoint" />
          </mxGeometry>
        </mxCell>
        <mxCell id="JRPKeL4zVLh7vCSeBcL3-181" value="" style="ellipse;whiteSpace=wrap;html=1;aspect=fixed;" parent="1" vertex="1">
          <mxGeometry x="549" y="810" width="10" height="10" as="geometry" />
        </mxCell>
        <mxCell id="JRPKeL4zVLh7vCSeBcL3-183" value="NOME" style="text;html=1;align=center;verticalAlign=middle;resizable=0;points=[];autosize=1;strokeColor=none;fillColor=none;" parent="1" vertex="1">
          <mxGeometry x="539" y="783" width="60" height="30" as="geometry" />
        </mxCell>
        <mxCell id="JRPKeL4zVLh7vCSeBcL3-184" value="(t,e)" style="text;html=1;align=center;verticalAlign=middle;resizable=0;points=[];autosize=1;strokeColor=none;fillColor=none;strokeWidth=7;fontSize=18;" parent="1" vertex="1">
          <mxGeometry x="584" y="910" width="60" height="40" as="geometry" />
        </mxCell>
        <mxCell id="JRPKeL4zVLh7vCSeBcL3-186" value="" style="endArrow=none;html=1;rounded=0;entryX=0.75;entryY=1;entryDx=0;entryDy=0;" parent="1" target="JRPKeL4zVLh7vCSeBcL3-28" edge="1">
          <mxGeometry width="50" height="50" relative="1" as="geometry">
            <mxPoint x="485" y="1040" as="sourcePoint" />
            <mxPoint x="230" y="840" as="targetPoint" />
          </mxGeometry>
        </mxCell>
        <mxCell id="JRPKeL4zVLh7vCSeBcL3-187" value="" style="ellipse;whiteSpace=wrap;html=1;aspect=fixed;" parent="1" vertex="1">
          <mxGeometry x="480" y="1040" width="10" height="10" as="geometry" />
        </mxCell>
        <mxCell id="JRPKeL4zVLh7vCSeBcL3-188" value="TIPO_&lt;div&gt;PIATTAFORMA&lt;/div&gt;" style="text;html=1;align=center;verticalAlign=middle;resizable=0;points=[];autosize=1;strokeColor=none;fillColor=none;" parent="1" vertex="1">
          <mxGeometry x="434" y="1049" width="110" height="40" as="geometry" />
        </mxCell>
        <mxCell id="JRPKeL4zVLh7vCSeBcL3-189" value="" style="endArrow=none;html=1;rounded=0;entryX=0.408;entryY=0.979;entryDx=0;entryDy=0;entryPerimeter=0;" parent="1" source="JRPKeL4zVLh7vCSeBcL3-190" target="JRPKeL4zVLh7vCSeBcL3-28" edge="1">
          <mxGeometry width="50" height="50" relative="1" as="geometry">
            <mxPoint x="440" y="1100" as="sourcePoint" />
            <mxPoint x="230" y="820" as="targetPoint" />
          </mxGeometry>
        </mxCell>
        <mxCell id="JRPKeL4zVLh7vCSeBcL3-191" value="" style="endArrow=none;html=1;rounded=0;entryX=0.408;entryY=0.979;entryDx=0;entryDy=0;entryPerimeter=0;" parent="1" target="JRPKeL4zVLh7vCSeBcL3-190" edge="1">
          <mxGeometry width="50" height="50" relative="1" as="geometry">
            <mxPoint x="440" y="1100" as="sourcePoint" />
            <mxPoint x="444" y="1010" as="targetPoint" />
          </mxGeometry>
        </mxCell>
        <mxCell id="JRPKeL4zVLh7vCSeBcL3-190" value="" style="ellipse;whiteSpace=wrap;html=1;aspect=fixed;" parent="1" vertex="1">
          <mxGeometry x="439" y="1092" width="10" height="10" as="geometry" />
        </mxCell>
        <mxCell id="JRPKeL4zVLh7vCSeBcL3-192" value="TECNOLOGIA" style="text;html=1;align=center;verticalAlign=middle;resizable=0;points=[];autosize=1;strokeColor=none;fillColor=none;" parent="1" vertex="1">
          <mxGeometry x="398" y="1103" width="100" height="30" as="geometry" />
        </mxCell>
        <mxCell id="JRPKeL4zVLh7vCSeBcL3-194" value="" style="endArrow=none;html=1;rounded=0;" parent="1" edge="1">
          <mxGeometry width="50" height="50" relative="1" as="geometry">
            <mxPoint x="350" y="930" as="sourcePoint" />
            <mxPoint x="530" y="930" as="targetPoint" />
          </mxGeometry>
        </mxCell>
        <mxCell id="JRPKeL4zVLh7vCSeBcL3-195" value="" style="endArrow=none;html=1;rounded=0;" parent="1" edge="1">
          <mxGeometry width="50" height="50" relative="1" as="geometry">
            <mxPoint x="350" y="980" as="sourcePoint" />
            <mxPoint x="352" y="930" as="targetPoint" />
          </mxGeometry>
        </mxCell>
        <mxCell id="JRPKeL4zVLh7vCSeBcL3-196" value="" style="endArrow=none;html=1;rounded=0;" parent="1" edge="1">
          <mxGeometry width="50" height="50" relative="1" as="geometry">
            <mxPoint x="615" y="1050" as="sourcePoint" />
            <mxPoint x="615" y="1011" as="targetPoint" />
          </mxGeometry>
        </mxCell>
        <mxCell id="JRPKeL4zVLh7vCSeBcL3-197" value="" style="ellipse;whiteSpace=wrap;html=1;aspect=fixed;" parent="1" vertex="1">
          <mxGeometry x="610" y="1049" width="10" height="10" as="geometry" />
        </mxCell>
        <mxCell id="JRPKeL4zVLh7vCSeBcL3-198" value="FUNZIONALITA&#39;" style="text;html=1;align=center;verticalAlign=middle;resizable=0;points=[];autosize=1;strokeColor=none;fillColor=none;" parent="1" vertex="1">
          <mxGeometry x="585" y="1052" width="110" height="30" as="geometry" />
        </mxCell>
        <mxCell id="JRPKeL4zVLh7vCSeBcL3-199" value="" style="endArrow=none;html=1;rounded=0;entryX=0.5;entryY=1;entryDx=0;entryDy=0;" parent="1" target="JRPKeL4zVLh7vCSeBcL3-29" edge="1">
          <mxGeometry width="50" height="50" relative="1" as="geometry">
            <mxPoint x="579" y="1090" as="sourcePoint" />
            <mxPoint x="230" y="860" as="targetPoint" />
          </mxGeometry>
        </mxCell>
        <mxCell id="JRPKeL4zVLh7vCSeBcL3-200" value="" style="ellipse;whiteSpace=wrap;html=1;aspect=fixed;" parent="1" vertex="1">
          <mxGeometry x="574" y="1085" width="10" height="10" as="geometry" />
        </mxCell>
        <mxCell id="JRPKeL4zVLh7vCSeBcL3-201" value="DURATA_&lt;div&gt;VITA&lt;/div&gt;" style="text;html=1;align=center;verticalAlign=middle;resizable=0;points=[];autosize=1;strokeColor=none;fillColor=none;" parent="1" vertex="1">
          <mxGeometry x="547" y="1087" width="80" height="40" as="geometry" />
        </mxCell>
        <mxCell id="JRPKeL4zVLh7vCSeBcL3-202" value="" style="endArrow=none;html=1;rounded=0;" parent="1" edge="1">
          <mxGeometry width="50" height="50" relative="1" as="geometry">
            <mxPoint x="733" y="1052" as="sourcePoint" />
            <mxPoint x="733" y="1013" as="targetPoint" />
          </mxGeometry>
        </mxCell>
        <mxCell id="JRPKeL4zVLh7vCSeBcL3-203" value="" style="ellipse;whiteSpace=wrap;html=1;aspect=fixed;" parent="1" vertex="1">
          <mxGeometry x="728" y="1051" width="10" height="10" as="geometry" />
        </mxCell>
        <mxCell id="JRPKeL4zVLh7vCSeBcL3-204" value="SUPPORTO_&lt;div&gt;TECNICO&lt;/div&gt;" style="text;html=1;align=center;verticalAlign=middle;resizable=0;points=[];autosize=1;strokeColor=none;fillColor=none;" parent="1" vertex="1">
          <mxGeometry x="702" y="1056" width="100" height="40" as="geometry" />
        </mxCell>
        <mxCell id="JRPKeL4zVLh7vCSeBcL3-205" value="" style="endArrow=none;html=1;rounded=0;entryX=0.5;entryY=1;entryDx=0;entryDy=0;exitX=0.5;exitY=0;exitDx=0;exitDy=0;" parent="1" source="JRPKeL4zVLh7vCSeBcL3-206" target="JRPKeL4zVLh7vCSeBcL3-30" edge="1">
          <mxGeometry width="50" height="50" relative="1" as="geometry">
            <mxPoint x="706" y="1090" as="sourcePoint" />
            <mxPoint x="706" y="1051" as="targetPoint" />
          </mxGeometry>
        </mxCell>
        <mxCell id="JRPKeL4zVLh7vCSeBcL3-206" value="" style="ellipse;whiteSpace=wrap;html=1;aspect=fixed;" parent="1" vertex="1">
          <mxGeometry x="698" y="1093" width="10" height="10" as="geometry" />
        </mxCell>
        <mxCell id="JRPKeL4zVLh7vCSeBcL3-207" value="PIANO_&lt;div&gt;TARIFFARIO&lt;/div&gt;" style="text;html=1;align=center;verticalAlign=middle;resizable=0;points=[];autosize=1;strokeColor=none;fillColor=none;" parent="1" vertex="1">
          <mxGeometry x="660" y="1103" width="90" height="40" as="geometry" />
        </mxCell>
        <mxCell id="JRPKeL4zVLh7vCSeBcL3-208" value="" style="endArrow=none;html=1;rounded=0;entryX=0.108;entryY=0.963;entryDx=0;entryDy=0;entryPerimeter=0;" parent="1" edge="1">
          <mxGeometry width="50" height="50" relative="1" as="geometry">
            <mxPoint x="531" y="931" as="sourcePoint" />
            <mxPoint x="536.96" y="908.78" as="targetPoint" />
          </mxGeometry>
        </mxCell>
        <mxCell id="JRPKeL4zVLh7vCSeBcL3-209" value="" style="endArrow=none;html=1;rounded=0;entryX=0.25;entryY=0;entryDx=0;entryDy=0;" parent="1" source="JRPKeL4zVLh7vCSeBcL3-210" target="JRPKeL4zVLh7vCSeBcL3-53" edge="1">
          <mxGeometry width="50" height="50" relative="1" as="geometry">
            <mxPoint x="160" y="820" as="sourcePoint" />
            <mxPoint x="190" y="890" as="targetPoint" />
          </mxGeometry>
        </mxCell>
        <mxCell id="JRPKeL4zVLh7vCSeBcL3-211" value="" style="endArrow=none;html=1;rounded=0;entryX=0.25;entryY=0;entryDx=0;entryDy=0;" parent="1" target="JRPKeL4zVLh7vCSeBcL3-210" edge="1">
          <mxGeometry width="50" height="50" relative="1" as="geometry">
            <mxPoint x="160" y="820" as="sourcePoint" />
            <mxPoint x="160" y="850" as="targetPoint" />
          </mxGeometry>
        </mxCell>
        <mxCell id="JRPKeL4zVLh7vCSeBcL3-210" value="" style="ellipse;whiteSpace=wrap;html=1;aspect=fixed;" parent="1" vertex="1">
          <mxGeometry x="155" y="817" width="10" height="10" as="geometry" />
        </mxCell>
        <mxCell id="JRPKeL4zVLh7vCSeBcL3-212" value="ID_BACHECA" style="text;html=1;align=center;verticalAlign=middle;resizable=0;points=[];autosize=1;strokeColor=none;fillColor=none;" parent="1" vertex="1">
          <mxGeometry x="108" y="790" width="100" height="30" as="geometry" />
        </mxCell>
        <mxCell id="JRPKeL4zVLh7vCSeBcL3-213" value="" style="endArrow=none;html=1;rounded=0;" parent="1" edge="1">
          <mxGeometry width="50" height="50" relative="1" as="geometry">
            <mxPoint x="330" y="832" as="sourcePoint" />
            <mxPoint x="330" y="982" as="targetPoint" />
          </mxGeometry>
        </mxCell>
        <mxCell id="JRPKeL4zVLh7vCSeBcL3-214" value="" style="endArrow=none;html=1;rounded=0;" parent="1" edge="1">
          <mxGeometry width="50" height="50" relative="1" as="geometry">
            <mxPoint x="30" y="833" as="sourcePoint" />
            <mxPoint x="331" y="833" as="targetPoint" />
          </mxGeometry>
        </mxCell>
        <mxCell id="JRPKeL4zVLh7vCSeBcL3-215" value="" style="endArrow=none;html=1;rounded=0;" parent="1" edge="1">
          <mxGeometry width="50" height="50" relative="1" as="geometry">
            <mxPoint x="90" y="1050" as="sourcePoint" />
            <mxPoint x="30" y="1000" as="targetPoint" />
          </mxGeometry>
        </mxCell>
        <mxCell id="JRPKeL4zVLh7vCSeBcL3-216" value="" style="endArrow=none;html=1;rounded=0;" parent="1" edge="1">
          <mxGeometry width="50" height="50" relative="1" as="geometry">
            <mxPoint x="30" y="1001" as="sourcePoint" />
            <mxPoint x="30" y="831" as="targetPoint" />
          </mxGeometry>
        </mxCell>
        <mxCell id="JRPKeL4zVLh7vCSeBcL3-217" value="" style="endArrow=none;html=1;rounded=0;" parent="1" source="JRPKeL4zVLh7vCSeBcL3-218" edge="1">
          <mxGeometry width="50" height="50" relative="1" as="geometry">
            <mxPoint x="-50" y="1031" as="sourcePoint" />
            <mxPoint x="-50" y="990" as="targetPoint" />
          </mxGeometry>
        </mxCell>
        <mxCell id="JRPKeL4zVLh7vCSeBcL3-219" value="" style="endArrow=none;html=1;rounded=0;" parent="1" target="JRPKeL4zVLh7vCSeBcL3-218" edge="1">
          <mxGeometry width="50" height="50" relative="1" as="geometry">
            <mxPoint x="-50" y="1031" as="sourcePoint" />
            <mxPoint x="-50" y="990" as="targetPoint" />
          </mxGeometry>
        </mxCell>
        <mxCell id="JRPKeL4zVLh7vCSeBcL3-218" value="" style="ellipse;whiteSpace=wrap;html=1;aspect=fixed;" parent="1" vertex="1">
          <mxGeometry x="-55" y="985" width="10" height="10" as="geometry" />
        </mxCell>
        <mxCell id="JRPKeL4zVLh7vCSeBcL3-220" value="TITOLO_&lt;div&gt;EVENTO&lt;/div&gt;" style="text;html=1;align=center;verticalAlign=middle;resizable=0;points=[];autosize=1;strokeColor=none;fillColor=none;" parent="1" vertex="1">
          <mxGeometry x="-95" y="950" width="70" height="40" as="geometry" />
        </mxCell>
        <mxCell id="JRPKeL4zVLh7vCSeBcL3-221" value="" style="endArrow=none;html=1;rounded=0;entryX=0.25;entryY=1;entryDx=0;entryDy=0;" parent="1" target="JRPKeL4zVLh7vCSeBcL3-52" edge="1">
          <mxGeometry width="50" height="50" relative="1" as="geometry">
            <mxPoint x="-30" y="1120" as="sourcePoint" />
            <mxPoint x="-40" y="1100" as="targetPoint" />
          </mxGeometry>
        </mxCell>
        <mxCell id="JRPKeL4zVLh7vCSeBcL3-222" value="" style="ellipse;whiteSpace=wrap;html=1;aspect=fixed;" parent="1" vertex="1">
          <mxGeometry x="-36" y="1118" width="10" height="10" as="geometry" />
        </mxCell>
        <mxCell id="JRPKeL4zVLh7vCSeBcL3-223" value="DESCRIZIONE" style="text;html=1;align=center;verticalAlign=middle;resizable=0;points=[];autosize=1;strokeColor=none;fillColor=none;" parent="1" vertex="1">
          <mxGeometry x="-130" y="1102" width="110" height="30" as="geometry" />
        </mxCell>
        <mxCell id="JRPKeL4zVLh7vCSeBcL3-225" value="" style="endArrow=none;html=1;rounded=0;" parent="1" edge="1">
          <mxGeometry width="50" height="50" relative="1" as="geometry">
            <mxPoint x="-27" y="1031" as="sourcePoint" />
            <mxPoint x="-27" y="995" as="targetPoint" />
          </mxGeometry>
        </mxCell>
        <mxCell id="JRPKeL4zVLh7vCSeBcL3-226" value="" style="ellipse;whiteSpace=wrap;html=1;aspect=fixed;" parent="1" vertex="1">
          <mxGeometry x="-31" y="985" width="10" height="10" as="geometry" />
        </mxCell>
        <mxCell id="JRPKeL4zVLh7vCSeBcL3-227" value="ID_&lt;div&gt;EVENTO&lt;/div&gt;" style="text;html=1;align=center;verticalAlign=middle;resizable=0;points=[];autosize=1;strokeColor=none;fillColor=none;" parent="1" vertex="1">
          <mxGeometry x="-41" y="950" width="70" height="40" as="geometry" />
        </mxCell>
        <mxCell id="JRPKeL4zVLh7vCSeBcL3-228" value="" style="endArrow=none;html=1;rounded=0;" parent="1" source="JRPKeL4zVLh7vCSeBcL3-230" edge="1">
          <mxGeometry width="50" height="50" relative="1" as="geometry">
            <mxPoint x="-90" y="1002" as="sourcePoint" />
            <mxPoint x="-20" y="1002" as="targetPoint" />
          </mxGeometry>
        </mxCell>
        <mxCell id="JRPKeL4zVLh7vCSeBcL3-231" value="" style="endArrow=none;html=1;rounded=0;" parent="1" target="JRPKeL4zVLh7vCSeBcL3-230" edge="1">
          <mxGeometry width="50" height="50" relative="1" as="geometry">
            <mxPoint x="-90" y="1002" as="sourcePoint" />
            <mxPoint x="-20" y="1002" as="targetPoint" />
          </mxGeometry>
        </mxCell>
        <mxCell id="JRPKeL4zVLh7vCSeBcL3-230" value="" style="ellipse;whiteSpace=wrap;html=1;aspect=fixed;fillColor=light-dark(#FFFFFF,#E96B12);" parent="1" vertex="1">
          <mxGeometry x="-95" y="997" width="10" height="10" as="geometry" />
        </mxCell>
        <mxCell id="JRPKeL4zVLh7vCSeBcL3-232" value="(1,1)" style="text;html=1;align=center;verticalAlign=middle;resizable=0;points=[];autosize=1;strokeColor=none;fillColor=none;strokeWidth=7;fontSize=18;" parent="1" vertex="1">
          <mxGeometry x="77" y="880" width="60" height="40" as="geometry" />
        </mxCell>
        <mxCell id="JRPKeL4zVLh7vCSeBcL3-233" value="(1,1)" style="text;html=1;align=center;verticalAlign=middle;resizable=0;points=[];autosize=1;strokeColor=none;fillColor=none;strokeWidth=7;fontSize=18;" parent="1" vertex="1">
          <mxGeometry x="216" y="904" width="60" height="40" as="geometry" />
        </mxCell>
        <mxCell id="JRPKeL4zVLh7vCSeBcL3-234" value="(1,N)" style="text;html=1;align=center;verticalAlign=middle;resizable=0;points=[];autosize=1;strokeColor=none;fillColor=none;strokeWidth=7;fontSize=18;" parent="1" vertex="1">
          <mxGeometry x="470" y="890" width="60" height="40" as="geometry" />
        </mxCell>
        <mxCell id="JRPKeL4zVLh7vCSeBcL3-235" value="(1,N)" style="text;html=1;align=center;verticalAlign=middle;resizable=0;points=[];autosize=1;strokeColor=none;fillColor=none;strokeWidth=7;fontSize=18;" parent="1" vertex="1">
          <mxGeometry x="57" y="1078" width="60" height="40" as="geometry" />
        </mxCell>
        <mxCell id="JRPKeL4zVLh7vCSeBcL3-236" value="(1,1)" style="text;html=1;align=center;verticalAlign=middle;resizable=0;points=[];autosize=1;strokeColor=none;fillColor=none;strokeWidth=7;fontSize=18;" parent="1" vertex="1">
          <mxGeometry x="269" y="463" width="60" height="40" as="geometry" />
        </mxCell>
        <mxCell id="JRPKeL4zVLh7vCSeBcL3-237" value="(1,N)" style="text;html=1;align=center;verticalAlign=middle;resizable=0;points=[];autosize=1;strokeColor=none;fillColor=none;strokeWidth=7;fontSize=18;" parent="1" vertex="1">
          <mxGeometry x="70" y="463" width="60" height="40" as="geometry" />
        </mxCell>
        <mxCell id="JRPKeL4zVLh7vCSeBcL3-238" value="(1,1)" style="text;html=1;align=center;verticalAlign=middle;resizable=0;points=[];autosize=1;strokeColor=none;fillColor=none;strokeWidth=7;fontSize=18;" parent="1" vertex="1">
          <mxGeometry x="-31" y="995" width="60" height="40" as="geometry" />
        </mxCell>
        <mxCell id="JRPKeL4zVLh7vCSeBcL3-239" value="(1,N)" style="text;html=1;align=center;verticalAlign=middle;resizable=0;points=[];autosize=1;strokeColor=none;fillColor=none;strokeWidth=7;fontSize=18;" parent="1" vertex="1">
          <mxGeometry x="10" y="501" width="60" height="40" as="geometry" />
        </mxCell>
        <mxCell id="JRPKeL4zVLh7vCSeBcL3-240" value="(1,N)" style="text;html=1;align=center;verticalAlign=middle;resizable=0;points=[];autosize=1;strokeColor=none;fillColor=none;strokeWidth=7;fontSize=18;" parent="1" vertex="1">
          <mxGeometry x="292" y="70" width="60" height="40" as="geometry" />
        </mxCell>
        <mxCell id="JRPKeL4zVLh7vCSeBcL3-241" value="(1,N)" style="text;html=1;align=center;verticalAlign=middle;resizable=0;points=[];autosize=1;strokeColor=none;fillColor=none;strokeWidth=7;fontSize=18;" parent="1" vertex="1">
          <mxGeometry x="-170" y="1031" width="60" height="40" as="geometry" />
        </mxCell>
        <mxCell id="JRPKeL4zVLh7vCSeBcL3-244" value="" style="endArrow=none;html=1;rounded=0;" parent="1" source="JRPKeL4zVLh7vCSeBcL3-243" edge="1">
          <mxGeometry width="50" height="50" relative="1" as="geometry">
            <mxPoint x="-229" y="280" as="sourcePoint" />
            <mxPoint x="-280" y="280" as="targetPoint" />
          </mxGeometry>
        </mxCell>
        <mxCell id="JRPKeL4zVLh7vCSeBcL3-245" value="DATA_EVENTO" style="text;html=1;align=center;verticalAlign=middle;resizable=0;points=[];autosize=1;strokeColor=none;fillColor=none;" parent="1" vertex="1">
          <mxGeometry x="-393" y="263" width="110" height="30" as="geometry" />
        </mxCell>
        <mxCell id="JRPKeL4zVLh7vCSeBcL3-246" value="PARTECIPAZIONE" style="rounded=0;whiteSpace=wrap;html=1;" parent="1" vertex="1">
          <mxGeometry x="-228" y="279" width="120" height="60" as="geometry" />
        </mxCell>
        <mxCell id="JRPKeL4zVLh7vCSeBcL3-247" value="E-P" style="rhombus;whiteSpace=wrap;html=1;" parent="1" vertex="1">
          <mxGeometry x="-210" y="429" width="80" height="80" as="geometry" />
        </mxCell>
        <mxCell id="JRPKeL4zVLh7vCSeBcL3-248" value="" style="endArrow=none;html=1;rounded=0;entryX=0.5;entryY=0;entryDx=0;entryDy=0;" parent="1" edge="1">
          <mxGeometry width="50" height="50" relative="1" as="geometry">
            <mxPoint x="-170" y="339" as="sourcePoint" />
            <mxPoint x="-170" y="429" as="targetPoint" />
          </mxGeometry>
        </mxCell>
        <mxCell id="JRPKeL4zVLh7vCSeBcL3-249" value="" style="endArrow=none;html=1;rounded=0;entryX=0.5;entryY=1;entryDx=0;entryDy=0;" parent="1" edge="1">
          <mxGeometry width="50" height="50" relative="1" as="geometry">
            <mxPoint x="-140" y="279" as="sourcePoint" />
            <mxPoint x="-140" y="167" as="targetPoint" />
          </mxGeometry>
        </mxCell>
        <mxCell id="JRPKeL4zVLh7vCSeBcL3-251" value="" style="endArrow=none;html=1;rounded=0;" parent="1" target="JRPKeL4zVLh7vCSeBcL3-243" edge="1">
          <mxGeometry width="50" height="50" relative="1" as="geometry">
            <mxPoint x="-229" y="280" as="sourcePoint" />
            <mxPoint x="-280" y="280" as="targetPoint" />
          </mxGeometry>
        </mxCell>
        <mxCell id="JRPKeL4zVLh7vCSeBcL3-243" value="" style="ellipse;whiteSpace=wrap;html=1;aspect=fixed;" parent="1" vertex="1">
          <mxGeometry x="-290" y="275" width="10" height="10" as="geometry" />
        </mxCell>
        <mxCell id="JRPKeL4zVLh7vCSeBcL3-252" value="(1,1)" style="text;html=1;align=center;verticalAlign=middle;resizable=0;points=[];autosize=1;strokeColor=none;fillColor=none;strokeWidth=7;fontSize=18;" parent="1" vertex="1">
          <mxGeometry x="-228" y="340" width="60" height="40" as="geometry" />
        </mxCell>
        <mxCell id="JRPKeL4zVLh7vCSeBcL3-253" value="(1,1)" style="text;html=1;align=center;verticalAlign=middle;resizable=0;points=[];autosize=1;strokeColor=none;fillColor=none;strokeWidth=7;fontSize=18;" parent="1" vertex="1">
          <mxGeometry x="-146" y="160" width="60" height="40" as="geometry" />
        </mxCell>
        <mxCell id="JRPKeL4zVLh7vCSeBcL3-254" value="" style="endArrow=none;html=1;rounded=0;" parent="1" edge="1">
          <mxGeometry width="50" height="50" relative="1" as="geometry">
            <mxPoint x="-60" y="680" as="sourcePoint" />
            <mxPoint x="-60" y="110" as="targetPoint" />
          </mxGeometry>
        </mxCell>
        <mxCell id="JRPKeL4zVLh7vCSeBcL3-255" value="" style="endArrow=none;html=1;rounded=0;" parent="1" edge="1">
          <mxGeometry width="50" height="50" relative="1" as="geometry">
            <mxPoint x="-60" y="680" as="sourcePoint" />
            <mxPoint x="-60" y="680" as="targetPoint" />
          </mxGeometry>
        </mxCell>
        <mxCell id="JRPKeL4zVLh7vCSeBcL3-257" value="" style="endArrow=none;html=1;rounded=0;" parent="1" edge="1">
          <mxGeometry width="50" height="50" relative="1" as="geometry">
            <mxPoint x="-167" y="680" as="sourcePoint" />
            <mxPoint x="-61" y="681" as="targetPoint" />
          </mxGeometry>
        </mxCell>
        <mxCell id="JRPKeL4zVLh7vCSeBcL3-258" value="" style="endArrow=none;html=1;rounded=0;entryX=0;entryY=0.5;entryDx=0;entryDy=0;" parent="1" target="JRPKeL4zVLh7vCSeBcL3-74" edge="1">
          <mxGeometry width="50" height="50" relative="1" as="geometry">
            <mxPoint x="-270" y="128" as="sourcePoint" />
            <mxPoint x="190" y="380" as="targetPoint" />
          </mxGeometry>
        </mxCell>
        <mxCell id="JRPKeL4zVLh7vCSeBcL3-259" value="" style="endArrow=none;html=1;rounded=0;" parent="1" edge="1">
          <mxGeometry width="50" height="50" relative="1" as="geometry">
            <mxPoint x="-270" y="600" as="sourcePoint" />
            <mxPoint x="-270" y="130" as="targetPoint" />
          </mxGeometry>
        </mxCell>
        <mxCell id="JRPKeL4zVLh7vCSeBcL3-260" value="" style="endArrow=none;html=1;rounded=0;" parent="1" edge="1">
          <mxGeometry width="50" height="50" relative="1" as="geometry">
            <mxPoint x="-270" y="600" as="sourcePoint" />
            <mxPoint x="-170" y="600" as="targetPoint" />
          </mxGeometry>
        </mxCell>
        <mxCell id="JRPKeL4zVLh7vCSeBcL3-261" value="" style="endArrow=none;html=1;rounded=0;" parent="1" edge="1">
          <mxGeometry width="50" height="50" relative="1" as="geometry">
            <mxPoint x="-330" y="334" as="sourcePoint" />
            <mxPoint x="-260" y="335" as="targetPoint" />
          </mxGeometry>
        </mxCell>
        <mxCell id="JRPKeL4zVLh7vCSeBcL3-263" value="" style="endArrow=none;html=1;rounded=0;" parent="1" target="JRPKeL4zVLh7vCSeBcL3-262" edge="1">
          <mxGeometry width="50" height="50" relative="1" as="geometry">
            <mxPoint x="-330" y="335" as="sourcePoint" />
            <mxPoint x="-260" y="335" as="targetPoint" />
          </mxGeometry>
        </mxCell>
        <mxCell id="JRPKeL4zVLh7vCSeBcL3-262" value="" style="ellipse;whiteSpace=wrap;html=1;aspect=fixed;fillColor=light-dark(#FFFFFF,#E96B12);" parent="1" vertex="1">
          <mxGeometry x="-340" y="329" width="10" height="10" as="geometry" />
        </mxCell>
        <mxCell id="JRPKeL4zVLh7vCSeBcL3-264" value="" style="endArrow=none;html=1;rounded=0;" parent="1" edge="1">
          <mxGeometry width="50" height="50" relative="1" as="geometry">
            <mxPoint x="-90" y="390" as="sourcePoint" />
            <mxPoint x="-40" y="390" as="targetPoint" />
          </mxGeometry>
        </mxCell>
        <mxCell id="JRPKeL4zVLh7vCSeBcL3-266" value="" style="ellipse;whiteSpace=wrap;html=1;aspect=fixed;fillColor=light-dark(#FFFFFF,#E96B12);" parent="1" vertex="1">
          <mxGeometry x="-96" y="384" width="10" height="10" as="geometry" />
        </mxCell>
        <mxCell id="JRPKeL4zVLh7vCSeBcL3-267" value="" style="endArrow=none;html=1;rounded=0;" parent="1" source="JRPKeL4zVLh7vCSeBcL3-268" edge="1">
          <mxGeometry width="50" height="50" relative="1" as="geometry">
            <mxPoint x="280" y="850" as="sourcePoint" />
            <mxPoint x="280" y="780" as="targetPoint" />
          </mxGeometry>
        </mxCell>
        <mxCell id="JRPKeL4zVLh7vCSeBcL3-269" value="" style="endArrow=none;html=1;rounded=0;" parent="1" target="JRPKeL4zVLh7vCSeBcL3-268" edge="1">
          <mxGeometry width="50" height="50" relative="1" as="geometry">
            <mxPoint x="280" y="850" as="sourcePoint" />
            <mxPoint x="280" y="780" as="targetPoint" />
          </mxGeometry>
        </mxCell>
        <mxCell id="JRPKeL4zVLh7vCSeBcL3-268" value="" style="ellipse;whiteSpace=wrap;html=1;aspect=fixed;fillColor=light-dark(#FFFFFF,#E96B12);" parent="1" vertex="1">
          <mxGeometry x="276" y="777" width="10" height="10" as="geometry" />
        </mxCell>
        <mxCell id="JRPKeL4zVLh7vCSeBcL3-270" value="" style="endArrow=none;html=1;rounded=0;entryX=0.839;entryY=-0.003;entryDx=0;entryDy=0;entryPerimeter=0;" parent="1" source="JRPKeL4zVLh7vCSeBcL3-272" target="JRPKeL4zVLh7vCSeBcL3-31" edge="1">
          <mxGeometry width="50" height="50" relative="1" as="geometry">
            <mxPoint x="656" y="520" as="sourcePoint" />
            <mxPoint x="430" y="340" as="targetPoint" />
          </mxGeometry>
        </mxCell>
        <mxCell id="JRPKeL4zVLh7vCSeBcL3-273" value="" style="endArrow=none;html=1;rounded=0;entryX=0.839;entryY=-0.003;entryDx=0;entryDy=0;entryPerimeter=0;" parent="1" target="JRPKeL4zVLh7vCSeBcL3-272" edge="1">
          <mxGeometry width="50" height="50" relative="1" as="geometry">
            <mxPoint x="656" y="520" as="sourcePoint" />
            <mxPoint x="656" y="570" as="targetPoint" />
          </mxGeometry>
        </mxCell>
        <mxCell id="JRPKeL4zVLh7vCSeBcL3-272" value="" style="ellipse;whiteSpace=wrap;html=1;aspect=fixed;fillColor=light-dark(#FFFFFF,#E96B12);" parent="1" vertex="1">
          <mxGeometry x="651" y="515" width="10" height="10" as="geometry" />
        </mxCell>
        <mxCell id="JRPKeL4zVLh7vCSeBcL3-274" value="ID_FEEDBACK" style="text;html=1;align=center;verticalAlign=middle;resizable=0;points=[];autosize=1;strokeColor=none;fillColor=none;" parent="1" vertex="1">
          <mxGeometry x="607" y="487" width="110" height="30" as="geometry" />
        </mxCell>
        <mxCell id="JRPKeL4zVLh7vCSeBcL3-275" value="" style="endArrow=none;html=1;rounded=0;entryX=1;entryY=0.25;entryDx=0;entryDy=0;" parent="1" edge="1">
          <mxGeometry width="50" height="50" relative="1" as="geometry">
            <mxPoint x="1745" y="1005" as="sourcePoint" />
            <mxPoint x="1730" y="1030" as="targetPoint" />
          </mxGeometry>
        </mxCell>
        <mxCell id="JRPKeL4zVLh7vCSeBcL3-276" value="" style="ellipse;whiteSpace=wrap;html=1;aspect=fixed;" parent="1" vertex="1">
          <mxGeometry x="695" y="525" width="10" height="10" as="geometry" />
        </mxCell>
        <mxCell id="JRPKeL4zVLh7vCSeBcL3-278" value="" style="endArrow=none;html=1;rounded=0;entryX=0;entryY=0.5;entryDx=0;entryDy=0;exitX=1;exitY=0;exitDx=0;exitDy=0;" parent="1" source="JRPKeL4zVLh7vCSeBcL3-31" target="JRPKeL4zVLh7vCSeBcL3-276" edge="1">
          <mxGeometry width="50" height="50" relative="1" as="geometry">
            <mxPoint x="240" y="320" as="sourcePoint" />
            <mxPoint x="290" y="270" as="targetPoint" />
          </mxGeometry>
        </mxCell>
        <mxCell id="JRPKeL4zVLh7vCSeBcL3-279" value="DESCR" style="text;html=1;align=center;verticalAlign=middle;resizable=0;points=[];autosize=1;strokeColor=none;fillColor=none;" parent="1" vertex="1">
          <mxGeometry x="672" y="503" width="70" height="30" as="geometry" />
        </mxCell>
        <mxCell id="JRPKeL4zVLh7vCSeBcL3-280" value="(1,1)" style="text;html=1;align=center;verticalAlign=middle;resizable=0;points=[];autosize=1;strokeColor=none;fillColor=none;strokeWidth=7;fontSize=18;" parent="1" vertex="1">
          <mxGeometry x="678" y="565" width="60" height="40" as="geometry" />
        </mxCell>
        <mxCell id="JRPKeL4zVLh7vCSeBcL3-281" value="VALUTAZIONE" style="text;html=1;align=center;verticalAlign=middle;resizable=0;points=[];autosize=1;strokeColor=none;fillColor=none;" parent="1" vertex="1">
          <mxGeometry x="723" y="632" width="110" height="30" as="geometry" />
        </mxCell>
        <mxCell id="JRPKeL4zVLh7vCSeBcL3-282" value="" style="endArrow=none;html=1;rounded=0;" parent="1" source="JRPKeL4zVLh7vCSeBcL3-283" target="JRPKeL4zVLh7vCSeBcL3-31" edge="1">
          <mxGeometry width="50" height="50" relative="1" as="geometry">
            <mxPoint x="760" y="670" as="sourcePoint" />
            <mxPoint x="290" y="340" as="targetPoint" />
          </mxGeometry>
        </mxCell>
        <mxCell id="JRPKeL4zVLh7vCSeBcL3-284" value="" style="endArrow=none;html=1;rounded=0;" parent="1" target="JRPKeL4zVLh7vCSeBcL3-283" edge="1">
          <mxGeometry width="50" height="50" relative="1" as="geometry">
            <mxPoint x="760" y="670" as="sourcePoint" />
            <mxPoint x="675" y="629" as="targetPoint" />
          </mxGeometry>
        </mxCell>
        <mxCell id="JRPKeL4zVLh7vCSeBcL3-283" value="" style="ellipse;whiteSpace=wrap;html=1;aspect=fixed;" parent="1" vertex="1">
          <mxGeometry x="753" y="665" width="10" height="10" as="geometry" />
        </mxCell>
        <mxCell id="JRPKeL4zVLh7vCSeBcL3-285" value="(1,N)" style="text;html=1;align=center;verticalAlign=middle;resizable=0;points=[];autosize=1;strokeColor=none;fillColor=none;strokeWidth=7;fontSize=18;" parent="1" vertex="1">
          <mxGeometry x="456" y="145" width="60" height="40" as="geometry" />
        </mxCell>
        <mxCell id="JRPKeL4zVLh7vCSeBcL3-287" value="(1,N)" style="text;html=1;align=center;verticalAlign=middle;resizable=0;points=[];autosize=1;strokeColor=none;fillColor=none;strokeWidth=7;fontSize=18;" parent="1" vertex="1">
          <mxGeometry x="443" y="470" width="60" height="40" as="geometry" />
        </mxCell>
        <mxCell id="JRPKeL4zVLh7vCSeBcL3-288" value="(1,1)" style="text;html=1;align=center;verticalAlign=middle;resizable=0;points=[];autosize=1;strokeColor=none;fillColor=none;strokeWidth=7;fontSize=18;" parent="1" vertex="1">
          <mxGeometry x="519" y="525" width="60" height="40" as="geometry" />
        </mxCell>
        <mxCell id="JRPKeL4zVLh7vCSeBcL3-289" value="(1,1)" style="text;html=1;align=center;verticalAlign=middle;resizable=0;points=[];autosize=1;strokeColor=none;fillColor=none;strokeWidth=7;fontSize=18;" parent="1" vertex="1">
          <mxGeometry x="585" y="625" width="60" height="40" as="geometry" />
        </mxCell>
        <mxCell id="JRPKeL4zVLh7vCSeBcL3-290" value="(1,N)" style="text;html=1;align=center;verticalAlign=middle;resizable=0;points=[];autosize=1;strokeColor=none;fillColor=none;strokeWidth=7;fontSize=18;" parent="1" vertex="1">
          <mxGeometry x="584" y="813" width="60" height="40" as="geometry" />
        </mxCell>
        <mxCell id="JRPKeL4zVLh7vCSeBcL3-291" value="" style="endArrow=none;html=1;rounded=0;entryX=0.75;entryY=0;entryDx=0;entryDy=0;" parent="1" source="JRPKeL4zVLh7vCSeBcL3-294" target="JRPKeL4zVLh7vCSeBcL3-15" edge="1">
          <mxGeometry width="50" height="50" relative="1" as="geometry">
            <mxPoint x="47" y="400" as="sourcePoint" />
            <mxPoint x="280" y="510" as="targetPoint" />
          </mxGeometry>
        </mxCell>
        <mxCell id="JRPKeL4zVLh7vCSeBcL3-295" value="" style="endArrow=none;html=1;rounded=0;entryX=0.75;entryY=0;entryDx=0;entryDy=0;" parent="1" target="JRPKeL4zVLh7vCSeBcL3-294" edge="1">
          <mxGeometry width="50" height="50" relative="1" as="geometry">
            <mxPoint x="47" y="400" as="sourcePoint" />
            <mxPoint x="47" y="441" as="targetPoint" />
          </mxGeometry>
        </mxCell>
        <mxCell id="JRPKeL4zVLh7vCSeBcL3-294" value="" style="ellipse;whiteSpace=wrap;html=1;aspect=fixed;" parent="1" vertex="1">
          <mxGeometry x="43" y="395" width="10" height="10" as="geometry" />
        </mxCell>
        <mxCell id="JRPKeL4zVLh7vCSeBcL3-296" value="CATEGORIA" style="text;html=1;align=center;verticalAlign=middle;resizable=0;points=[];autosize=1;strokeColor=none;fillColor=none;" parent="1" vertex="1">
          <mxGeometry x="23" y="363" width="90" height="30" as="geometry" />
        </mxCell>
        <mxCell id="JRPKeL4zVLh7vCSeBcL3-297" value="" style="endArrow=none;html=1;rounded=0;entryX=1;entryY=0;entryDx=0;entryDy=0;exitX=0.036;exitY=1.038;exitDx=0;exitDy=0;exitPerimeter=0;" parent="1" source="JRPKeL4zVLh7vCSeBcL3-300" target="JRPKeL4zVLh7vCSeBcL3-15" edge="1">
          <mxGeometry width="50" height="50" relative="1" as="geometry">
            <mxPoint x="57" y="410" as="sourcePoint" />
            <mxPoint x="57" y="451" as="targetPoint" />
          </mxGeometry>
        </mxCell>
        <mxCell id="JRPKeL4zVLh7vCSeBcL3-299" value="" style="ellipse;whiteSpace=wrap;html=1;aspect=fixed;direction=south;" parent="1" vertex="1">
          <mxGeometry x="79" y="399" width="10" height="10" as="geometry" />
        </mxCell>
        <mxCell id="JRPKeL4zVLh7vCSeBcL3-300" value="NOME" style="text;html=1;align=center;verticalAlign=middle;resizable=0;points=[];autosize=1;strokeColor=none;fillColor=none;" parent="1" vertex="1">
          <mxGeometry x="80" y="376" width="60" height="30" as="geometry" />
        </mxCell>
        <mxCell id="JRPKeL4zVLh7vCSeBcL3-302" value="" style="endArrow=none;html=1;rounded=0;entryX=0.75;entryY=0;entryDx=0;entryDy=0;" parent="1" source="JRPKeL4zVLh7vCSeBcL3-304" edge="1">
          <mxGeometry width="50" height="50" relative="1" as="geometry">
            <mxPoint x="-16" y="399" as="sourcePoint" />
            <mxPoint x="-16" y="440" as="targetPoint" />
          </mxGeometry>
        </mxCell>
        <mxCell id="JRPKeL4zVLh7vCSeBcL3-303" value="" style="endArrow=none;html=1;rounded=0;entryX=0.75;entryY=0;entryDx=0;entryDy=0;" parent="1" target="JRPKeL4zVLh7vCSeBcL3-304" edge="1">
          <mxGeometry width="50" height="50" relative="1" as="geometry">
            <mxPoint x="-16" y="399" as="sourcePoint" />
            <mxPoint x="-16" y="440" as="targetPoint" />
          </mxGeometry>
        </mxCell>
        <mxCell id="JRPKeL4zVLh7vCSeBcL3-304" value="" style="ellipse;whiteSpace=wrap;html=1;aspect=fixed;" parent="1" vertex="1">
          <mxGeometry x="-20" y="394" width="10" height="10" as="geometry" />
        </mxCell>
        <mxCell id="JRPKeL4zVLh7vCSeBcL3-306" value="DESCRIZIONE" style="text;html=1;align=center;verticalAlign=middle;resizable=0;points=[];autosize=1;strokeColor=none;fillColor=none;" parent="1" vertex="1">
          <mxGeometry x="-62" y="399" width="110" height="30" as="geometry" />
        </mxCell>
        <mxCell id="JRPKeL4zVLh7vCSeBcL3-307" value="" style="endArrow=none;html=1;rounded=0;exitX=0.835;exitY=1.119;exitDx=0;exitDy=0;exitPerimeter=0;" parent="1" edge="1">
          <mxGeometry width="50" height="50" relative="1" as="geometry">
            <mxPoint x="29.850000000000136" y="430.57000000000005" as="sourcePoint" />
            <mxPoint x="100" y="431" as="targetPoint" />
          </mxGeometry>
        </mxCell>
      </root>
    </mxGraphModel>
  </diagram>
</mxfile>
